<svg width="800" height="600" xmlns="http://www.w3.org/2000/svg">
 <title>title</title>

 <g>
  <title>Layer 1</title>
  <ellipse fill="#fff" stroke="#000" cx="712" cy="246.5" id="svg_11"/>
  <ellipse fill="#fff" stroke="#000" cx="829.5" cy="258.5" id="svg_12" rx="0.5"/>
  <ellipse id="svg_8" cy="531.5" cx="475" stroke="#000" fill="#B6C7EA"/>
  <path id="svg_14" d="m325.52582,514.81421c21.21374,-10.88987 -26.92222,-20.10244 -34.06997,-30.38643c-21.0388,-20.19145 -27.59322,-47.02992 -33.45466,-71.9561c10.07391,-13.39383 5.99354,-27.2312 9.6436,-41.15169c17.84539,-20.66865 27.7175,-44.916 45.65174,-65.51041c19.97117,3.289 41.56642,15.93251 61.57314,20.73643c18.06076,25.33536 -14.96963,46.43245 -11.08611,70.96076c7.57545,22.86822 -12.71889,41.92609 -16.79758,63.23954c0.14214,20.16228 23.64005,40.57273 49.3194,26.71117c-1.30298,-14.7032 -37.93329,-19.26134 -21.5351,-39.93968c5.39574,-21.37947 23.08183,-38.49606 36.45512,-56.45645c-7.55582,-21.05925 2.50003,-47.75354 19.52429,-63.54032c17.28538,13.02967 29.22407,35.94031 31.86894,54.18523c0.33499,20.91485 36.02491,34.91128 35.34615,59.54375c2.66669,21.77754 15.73665,42.51521 33.86258,54.32025c9.47805,15.37167 68.29168,7.35274 36.96752,-10.90904c-25.86688,-18.21501 -55.62825,-37.53171 -59.55608,-66.55926c-10.73073,-17.231 13.93446,-41.64706 -16.35688,-48.8446c1.87725,-23.34949 -6.049,-49.85398 11.00385,-70.68076c24.56287,-16.37974 60.53581,-17.59397 84.02694,-35.71455c28.50586,-14.74557 44.68811,-38.90454 53.80659,-63.93997c13.8139,-12.0748 35.2678,-38.17462 59.13478,-24.60608c23.4163,11.29864 6.13413,-17.12396 19.58096,-23.39569c-11.09637,-31.24317 -56.13068,-16.24343 -84.238,-24.03846c-25.51899,-13.33623 -51.94096,-5.647 -70.55293,9.58602c-13.93906,4.9011 -6.39803,17.73034 7.27682,12.90429c-9.80869,25.42729 -23.32862,53.40929 -53.05957,68.46705c-34.11226,11.64668 -53.14021,-22.85957 -73.39556,-37.83643c-22.10827,-16.88494 -35.81531,-41.51946 -63.6611,-53.11071c-38.73142,-7.65256 -68.15806,18.88542 -97.40994,33.82754c-29.03051,11.34138 -63.88927,16.94627 -83.69443,39.06746c-32.86788,30.82499 -12.03167,77.33222 -46.59276,107.64463c-14.23545,16.80951 -45.57658,28.91509 -41.26982,52.0177c15.2645,24.74091 1.88673,54.27027 10.22163,80.88977c6.15973,19.23789 15.28019,43.94943 45.1384,46.80639c23.4892,11.61985 36.28262,-12.72026 11.41111,-19.76959c-30.02319,-10.40897 -34.12583,-39.7084 -36.53783,-62.21478c-6.62199,-22.271 15.99337,-37.00545 25.33324,-54.48616c-7.88719,-17.07516 19.92478,-40.28508 37.5654,-36.82855c-13.18396,15.8038 -32.43312,36.31159 -1.22723,49.32829c-0.40967,0.79868 4.57853,-14.58822 12.6139,-19.21144c-1.19947,-12.05473 -16.86936,-22.3176 -0.24835,-34.51476c29.16024,-15.17185 22.73288,28.83784 16.67831,41.31719c-0.32034,19.16376 -33.23809,34.38422 -16.42995,53.58911c18.41368,23.68647 27.05392,50.8786 34.11972,77.7148c10.13886,22.26145 35.75334,38.5425 67.78341,32.78959l5.2663,-0.04492l0.00004,-0.0001z" stroke="#000" fill="#B6C7EA"/>
 </g>
</svg>